<svg viewBox="0 0 100 150" fill="none" xmlns="http://www.w3.org/2000/svg">
<path d="M0 16.2632L25 0L50 0.190935L75 0L100 16.2632V130.951L50 150L0 130.951V16.2632Z" fill="#B09976"/>
<path d="M0 16.2632L25 0L50 0.190935L75 0L100 16.2632V130.951L50 150L0 130.951V16.2632Z" fill="black" fill-opacity="0.24"/>
<path d="M0 16.2632L25 0L50 0.190935L75 0L100 16.2632V48H50H0V16.2632Z" fill="#B09976"/>
<path d="M49.9847 2.19088L50 2.19099L50.0153 2.19088L74.4137 2.00454L98 17.3481V129.573L50 147.86L2 129.573V17.3481L25.5863 2.00454L49.9847 2.19088Z" stroke="#B09976" stroke-width="4"/>
</svg>
